<svg id="Layer_1" data-name="Layer 1" xmlns="http://www.w3.org/2000/svg" width="750" height="528.07" viewBox="0 0 750 528.07"><defs><style>.cls-1{fill:#fabb05;}.cls-2{fill:#4285f4;}.cls-3{fill:#34a853;}.cls-4{fill:#ea4335;}</style></defs><title>google_trends_logo</title><g id="g1110"><path id="path987-3" class="cls-1" d="M55.21,633.74c-12.22-7.68-51-48-54-56.21C-.23,573.69-.4,568,.81,565s63.06-66.3,137.44-140.5c115.22-114.92,136.43-134.9,143.23-134.9,6.61,0,17,9,60.79,52.34l52.8,52.34,94.14-94.14,94.15-94.15-31.31-31.73c-26.74-27.11-31.32-33.05-31.32-40.68,0-11,7.72-19.23,20.12-21.51,5.08-.94,51.18-1.32,102.45-.86l93.21.85,6.75,7.84L750,127.7l-.09,99.8c-.07,74-1,100.94-3.49,104.23-4.31,5.61-14.21,10.94-20.33,10.94-2.58,0-19.06-14-36.6-31.14s-32.44-30.66-33.09-30.06-58.23,58-127.95,127.61C420.6,516.72,400.5,535.59,393.71,535.59c-6.6,0-16.95-8.89-60.09-51.65l-52.11-51.66-99.17,99.37C93.58,620.59,73.53,639.07,65.83,639c-1.23,0-6-2.38-10.62-5.29Z" transform="translate(0 -110.97)"/><path id="path989-6" class="cls-2" d="M55.21,633.74c-12.22-7.68-51-48-54-56.21C-.23,573.69-.4,568,.81,565s63.06-66.3,137.44-140.5c114.84-114.54,136.44-134.9,143.18-134.9,6.53,0,17.39,9.27,61.41,52.42,29.41,28.84,69.82,69.15,89.81,89.58L469,468.7l-33.76,33.44c-27.05,26.8-35.33,33.45-41.63,33.45s-17.2-9.26-60-51.65l-52.11-51.66-99.17,99.37C93.58,620.59,73.53,639.07,65.83,639c-1.23,0-6-2.38-10.62-5.29ZM670.92,294c-28-26.78-73.26-72-100.56-100.41-42.42-44.2-49.63-53-49.63-60.34,0-10.66,7.87-19,20.12-21.2,5.08-.94,51.18-1.32,102.45-.86l93.21.85,6.74,7.84L750,127.7l-.09,99.8c-.07,74-1,100.94-3.49,104.23-4.25,5.53-14.19,10.94-20.1,10.94-2.46,0-27.39-21.91-55.4-48.7Z" transform="translate(0 -110.97)"/><path id="path1096" class="cls-3" d="M670.92,294c-28-26.78-73.26-72-100.56-100.41-42.42-44.2-49.63-53-49.63-60.34,0-10.66,7.87-19,20.12-21.2,5.08-.94,51.18-1.32,102.45-.86l93.21.85s8.25.43,10.59,2.9c2.9,3,2.9,12.79,2.9,12.79l-.09,99.8c-.07,74-1,100.94-3.49,104.23-4.25,5.53-14.19,10.94-20.1,10.94-2.46,0-27.39-21.91-55.4-48.7Z" transform="translate(0 -110.97)"/><path id="path1102" class="cls-4" d="M208.63,354.7c18.66-19,64.76-65.15,72.8-65.15,6.53,0,17.39,9.27,61.41,52.42,29.41,28.84,69.82,69.15,89.81,89.58L469,468.7l-33.76,33.44c-27.05,26.8-35.33,33.45-41.63,33.45s-17.2-9.26-60-51.65l-52.11-51.66Z" transform="translate(0 -110.97)"/></g></svg>