<?xml version="1.0" encoding="utf-8"?>
<!-- Generator: Adobe Illustrator 24.3.0, SVG Export Plug-In . SVG Version: 6.00 Build 0)  -->
<svg version="1.0" id="katman_1" xmlns="http://www.w3.org/2000/svg" xmlns:xlink="http://www.w3.org/1999/xlink" x="0px" y="0px"
	 viewBox="0 0 500 455.38" style="enable-background:new 0 0 500 455.38;" xml:space="preserve">
<style type="text/css">
	.st0{fill:#FBBC04;}
	.st1{fill:#4285F4;}
	.st2{fill:#34A853;}
</style>
<path class="st0" d="M177.81,41.72L11.14,330.39l144.35,83.34l166.67-288.67L177.81,41.72z"/>
<path class="st1" d="M488.84,330.37L322.15,41.69c-23.01-39.86-73.98-53.53-113.84-30.51c-39.86,23.01-53.53,73.98-30.51,113.84
	L344.48,413.7c23.01,39.86,73.98,53.5,113.84,30.51C498.18,421.2,511.82,370.23,488.84,330.37z"/>
<path class="st2" d="M83.33,455.38c46.02,0,83.33-37.31,83.33-83.33s-37.31-83.33-83.33-83.33C37.31,288.72,0,326.03,0,372.05
	S37.31,455.38,83.33,455.38z"/>
</svg>
